P3
# Created by GIMP version 2.10.24 PNM plug-in
25 25
255
142
85
165
130
136
168
111
179
172
96
201
174
104
190
173
123
154
170
139
103
166
145
62
164
146
50
165
140
75
172
121
116
187
89
151
206
60
168
216
77
160
211
110
130
195
134
90
177
144
61
167
143
79
165
132
129
168
112
177
172
91
206
175
91
206
175
112
177
172
131
130
168
139
93
171
141
90
165
127
145
169
104
190
173
86
212
176
95
201
174
118
164
171
136
113
167
145
65
165
146
49
165
142
67
169
128
103
182
107
134
196
89
151
206
99
142
201
121
117
188
138
80
173
145
57
166
144
75
165
133
122
168
116
167
171
99
196
174
100
195
174
117
167
171
134
122
167
143
80
166
143
79
165
132
128
168
116
169
171
102
191
174
107
182
174
119
153
174
134
109
171
143
72
168
147
47
164
144
57
167
137
83
174
128
103
182
121
116
187
125
109
185
134
92
177
142
67
169
146
50
165
142
77
168
135
113
172
122
146
175
117
163
174
118
162
172
129
139
168
137
110
167
141
87
165
145
65
165
138
102
167
127
135
172
115
158
178
109
160
184
109
150
188
122
123
184
134
90
176
144
60
167
148
45
164
145
57
167
142
67
169
140
75
172
141
70
170
143
62
168
146
49
165
143
63
168
134
95
177
121
123
186
111
141
190
116
141
184
124
130
177
133
118
170
136
118
167
133
126
167
147
47
164
143
72
166
134
102
174
114
137
189
92
157
202
81
162
207
102
141
199
126
107
184
143
68
170
147
49
165
148
43
164
146
47
165
146
48
165
146
48
165
147
44
164
146
49
165
141
72
171
123
114
186
97
146
202
77
162
210
96
149
201
119
128
186
131
122
172
125
149
170
114
172
171
147
44
164
144
57
167
133
95
177
109
135
196
72
163
212
54
171
218
86
154
207
120
120
188
138
81
172
146
55
165
147
44
164
147
43
164
147
43
164
147
43
164
147
43
164
146
49
165
137
82
174
116
125
192
77
160
211
46
173
219
77
161
211
113
135
191
125
137
175
114
173
172
96
201
174
147
46
164
145
56
166
137
83
174
118
121
190
93
148
204
81
157
209
101
145
198
123
122
183
136
104
171
142
83
166
144
69
165
147
47
164
146
46
165
146
46
165
147
46
164
146
49
165
141
72
171
122
114
186
97
145
202
77
160
211
97
146
202
119
126
185
128
133
172
114
173
172
96
201
174
145
63
164
144
67
165
140
78
170
131
99
179
121
116
188
114
130
190
118
138
184
121
145
176
123
150
171
131
133
168
137
108
167
142
77
168
143
63
168
142
67
169
144
60
168
145
53
166
143
64
168
133
92
177
122
114
186
115
125
192
122
115
186
131
103
177
134
115
170
126
147
169
114
172
171
138
107
166
138
107
166
140
95
166
140
84
169
139
82
171
134
104
173
125
143
172
111
176
173
101
193
173
113
175
172
127
141
171
133
106
174
130
101
180
128
104
182
133
93
178
140
75
172
145
54
166
143
63
168
141
72
171
137
82
174
141
72
171
142
70
168
143
82
165
138
108
166
133
125
167
121
159
170
121
159
170
130
136
168
139
102
166
143
73
165
139
99
167
122
154
170
98
197
174
83
215
176
98
198
174
117
159
174
120
132
184
108
135
196
101
141
200
114
126
192
131
98
180
143
64
169
147
47
165
146
49
165
146
49
165
146
49
165
147
46
164
145
58
165
144
70
166
142
78
166
100
195
174
100
195
174
117
167
171
133
122
168
142
82
166
140
94
166
126
145
169
106
186
173
93
204
175
106
187
174
118
155
176
110
141
191
83
156
208
69
164
213
95
147
203
123
114
186
140
76
171
146
53
165
147
44
164
147
43
164
146
49
165
143
62
168
141
70
170
140
77
172
142
70
169
91
206
175
91
206
175
110
178
172
128
136
172
135
99
172
136
99
172
130
127
172
123
153
170
117
166
171
123
153
171
124
135
176
111
136
192
83
155
208
69
164
213
95
150
202
121
122
186
136
96
171
143
76
166
145
63
164
146
52
165
142
67
169
134
92
177
125
109
185
121
116
187
128
103
182
107
184
172
106
185
173
115
163
175
120
139
181
117
127
188
118
123
189
124
121
182
131
116
174
134
117
168
138
103
168
135
101
172
124
112
185
108
133
196
100
144
199
111
141
190
122
136
179
129
134
171
134
122
168
139
101
166
142
76
167
138
82
173
121
117
188
99
142
201
89
151
206
107
134
196
127
141
169
125
144
171
121
140
178
107
144
193
87
154
206
87
152
207
110
132
195
131
103
179
141
78
168
144
66
166
143
68
168
137
84
174
131
100
180
125
117
182
122
138
178
117
163
174
110
178
172
117
167
171
130
136
168
138
98
168
133
96
177
110
130
195
77
160
211
60
168
216
89
151
206
141
88
166
137
99
171
124
118
183
97
147
201
63
167
215
63
167
215
98
144
202
127
107
183
141
74
170
144
65
165
144
67
166
143
70
167
141
74
168
137
99
170
126
144
171
106
185
173
91
206
175
100
195
174
121
159
170
136
111
168
135
94
175
116
123
191
90
151
206
77
160
211
99
142
201
145
54
165
142
68
168
132
98
179
110
130
195
87
152
207
87
152
207
110
130
195
131
100
179
139
93
169
138
101
167
136
114
167
139
101
166
140
89
166
139
94
167
127
142
169
107
185
173
91
206
175
100
195
174
121
159
170
137
109
167
139
84
171
129
103
181
116
123
191
110
130
195
121
117
188
147
43
164
145
54
166
138
79
173
128
104
182
119
119
189
119
119
189
128
105
182
135
98
173
133
122
169
124
151
169
117
166
171
124
151
169
133
124
169
136
107
170
127
132
173
116
163
174
109
180
174
116
168
172
130
136
168
141
93
166
144
65
166
141
73
171
137
84
175
134
90
177
138
83
173
147
43
164
147
44
164
145
55
166
142
68
170
139
77
172
139
77
172
141
74
170
140
94
167
127
145
169
106
186
173
93
204
175
106
186
173
120
152
174
123
128
181
114
138
188
112
148
186
116
149
180
127
132
174
137
105
168
144
70
165
147
49
164
146
49
165
145
57
166
142
74
167
141
84
167
147
48
164
147
48
164
147
46
164
146
46
165
146
49
165
146
49
165
145
56
165
140
97
166
123
153
170
98
197
174
83
215
176
97
198
175
113
165
178
106
147
193
87
155
206
86
157
206
108
140
194
129
110
179
141
76
168
146
51
165
147
43
164
147
44
164
145
66
165
139
101
166
132
129
168
143
76
165
143
76
165
145
67
165
146
55
164
146
47
165
146
46
165
146
53
164
142
84
165
129
137
168
113
175
171
101
193
174
110
177
174
114
156
181
96
153
200
63
168
215
63
167
215
98
145
202
127
108
183
142
69
170
146
46
165
147
43
164
146
50
164
143
79
165
132
128
168
116
168
171
133
125
167
133
125
167
137
110
167
140
89
168
142
72
169
143
65
169
144
59
167
143
73
166
138
107
166
131
133
168
125
148
170
127
138
171
124
130
179
109
137
194
87
152
207
87
152
207
110
130
195
132
96
179
143
62
168
146
46
165
147
43
164
146
52
164
141
91
165
127
145
169
104
190
173
114
172
171
114
173
172
122
152
173
127
126
176
127
110
181
129
102
181
135
88
176
142
70
170
143
73
166
143
81
165
141
93
166
141
86
167
136
94
173
128
105
182
119
119
189
119
119
189
128
105
182
138
80
173
145
54
166
147
43
164
147
46
165
145
58
166
140
90
168
128
139
170
110
179
173
96
201
174
95
201
175
107
178
176
111
154
185
102
145
197
104
138
198
120
118
188
135
88
176
144
59
167
146
53
164
146
51
164
146
52
164
145
56
166
142
68
170
138
81
172
138
86
172
140
82
170
143
70
166
146
54
164
146
48
165
144
61
168
139
77
172
132
101
176
126
130
176
120
152
174
95
201
174
94
202
175
104
181
179
98
164
193
77
165
209
77
161
211
104
137
198
129
101
181
143
65
169
146
46
165
147
43
164
147
43
164
147
43
164
145
55
165
142
82
166
139
100
167
136
112
167
139
103
166
142
87
165
144
69
167
137
84
174
125
109
185
113
129
193
111
137
192
120
132
184
114
172
172
112
174
173
112
161
179
100
156
194
77
163
210
77
160
211
104
137
198
129
101
181
143
65
169
146
46
165
147
43
164
147
43
164
147
45
164
144
72
165
136
113
167
126
146
169
119
163
170
123
154
170
132
127
168
138
96
169
130
102
180
108
133
196
83
155
208
83
156
208
108
137
195
